<svg width="792" height="320" viewBox="0 0 792 320" fill="none" xmlns="http://www.w3.org/2000/svg">
<path d="M342.789 0.449219H0V319.358H66.6119V187.453H156.426V130.259H66.6119V57.194H336.053C347.895 57.3032 359.615 59.587 370.632 63.9316C380.981 68.3339 390.082 75.2257 397.127 83.9944C404.35 93.425 409.456 104.302 412.096 115.885C415.346 129.719 416.904 143.897 416.736 158.107C416.903 172.51 415.09 186.868 411.347 200.778C408.237 212.765 402.682 223.98 395.031 233.717C387.038 243.252 376.729 250.573 365.093 254.977C350.739 260.304 335.489 262.795 320.186 262.314H278.124V130.858H211.512V319.059H320.186C343.793 319.38 367.296 315.892 389.792 308.728C409.132 302.663 426.818 292.23 441.483 278.237C456.148 264.243 467.399 247.064 474.367 228.027C482.367 205.707 486.222 182.113 485.743 158.406C485.743 106.303 472.121 66.9759 444.878 40.4251C416.919 14.9764 380.442 0.927502 342.64 1.04811" fill="#006DB6"/>
<path d="M608.04 0H671.359L791.11 319.059H722.253L641.421 75.9093L602.651 190.297H646.211L662.078 245.395H585.137L559.69 319.059H488.288L608.04 0Z" fill="#006DB6"/>
</svg>
