<?xml version="1.0" encoding="UTF-8"?>
<svg xmlns="http://www.w3.org/2000/svg" version="1.1" viewBox="0 0 1080 1300">
  <defs>
    <style>
      .cls-1 {
        fill: #1a4a22;
      }
    </style>
  </defs>
  <!-- Generator: Adobe Illustrator 28.7.1, SVG Export Plug-In . SVG Version: 1.2.0 Build 142)  -->
  <g>
    <g id="Capa_1">
      <path class="cls-1" d="M565.9,54.24c-363.68,0-492.45,163.44-497.13,398.16h278.5c13.84-101.27,69.03-168,204.85-168,117.36,0,190.95,43.65,190.95,117.3,0,78.26-41.41,108.19-190.95,128.96C250.68,572.07,32.04,608.86,32.04,935.63c0,184.15,119.67,310.68,377.34,310.68,151.85,0,271.51-52.88,342.92-131.14,2.31,34.49,9.23,73.64,18.34,101.21h278.56V500.67c0-285.36-124.34-446.43-483.29-446.43ZM240.29,1141.87s174.19-200.42,326.89-300.71c0,0-194.95,47.84-413.71,241.82,0,0-130.29-331.99,261.98-408.12,196.17-38.07,323.79-67.7,402.35-87.79,62.11,322.94-90.65,568.47-577.52,554.8Z"/>
    </g>
  </g>
</svg>