<svg width="666" height="126" viewBox="0 0 666 126" fill="none" xmlns="http://www.w3.org/2000/svg">
<path d="M78.37 2.77011C79.32 9.26011 78.78 17.6501 75.67 22.7901C72.29 22.3801 63.77 21.9801 53.49 21.7101C52.27 40.5101 48.35 75.4101 48.35 95.5601C38.21 97.0501 27.93 97.0501 17.78 95.5601C20.76 70.4001 22.78 46.3301 24.14 21.4401C14.27 21.5801 5.88001 21.8501 2.63001 22.2501C-0.479994 17.1101 -0.35 9.13014 1.28 2.64014C19.27 4.13014 59.71 4.26012 78.38 2.78012L78.37 2.77011Z" fill="#FF8908"/>
<path d="M198.04 63C196.42 84.91 180.73 98.98 158.82 98.98C136.91 98.98 123.52 84.64 125.14 63C126.76 41.09 142.45 27.02 164.23 27.02C186.01 27.02 199.67 41.36 198.04 63ZM155.43 62.86L154.21 90.5901C154.21 92.3501 154.62 93.57 156.92 93.29C163.68 92.48 167.2 81.39 167.74 62.86L168.69 35.4001C168.69 33.7801 168.42 32.42 165.99 32.83C159.63 33.91 156.12 44.6 155.44 62.86H155.43Z" fill="#FF8908"/>
<path d="M276.62 65.8401C275 76.6601 269.45 96.81 242.67 98.98C239.56 99.25 235.91 99.12 232.53 98.3L230.77 118.59C230.23 124.54 216.3 127.11 203.04 125.35L209.13 44.74C207.1 44.06 204.94 44.06 202.91 44.74C190.47 24.72 236.72 16.2001 231.85 54.0701H233.2C234.96 27.0201 244.83 25.67 256.33 27.02C272.56 28.91 279.73 44.6001 276.62 65.8401ZM232.93 92.6201C240.5 92.2101 244.16 84.7801 245.91 70.0301C248.34 50.2801 245.91 45.01 242.66 44.6C240.23 44.33 236.84 45.55 236.17 53.8L232.92 92.6201H232.93Z" fill="#FF8908"/>
<path d="M317.73 35.8101L313.94 84.7701C313.67 88.8301 313.94 93.0201 314.35 96.8101C308.4 98.1601 294.2 99.5101 284.19 96.8101L288.25 41.3601C288.52 37.3001 288.11 32.8401 287.84 29.0501L307.45 28.6401C316.24 28.5001 318.14 30.8001 317.73 35.8101ZM320.71 10.3801C320.03 17.5501 314.89 20.6601 302.99 20.6601C291.09 20.6601 286.49 17.5501 287.16 10.3801C287.84 3.2101 292.98 0.100098 304.88 0.100098C316.78 0.100098 321.38 3.2101 320.71 10.3801Z" fill="#FF8908"/>
<path d="M381.44 57.3203C372.65 56.9103 364.53 56.7802 356.28 56.9102C355.2 69.7602 353.98 82.7402 352.49 96.8102C343.7 98.3002 334.64 98.3002 325.85 96.8102C329.5 66.1102 331.8 35.5402 333.02 4.84024C353.17 5.79024 380.09 7.95023 391.99 3.49023C395.51 15.6602 391.45 27.4303 381.58 27.7003C374.95 27.7003 363.46 26.2102 358.59 25.4002C358.18 31.7602 357.78 37.9803 357.24 44.2003C366.03 44.3403 374.55 44.2002 383.89 43.7902C384.7 48.2502 384.43 52.8503 381.46 57.3203H381.44Z" fill="#0D725F"/>
<path d="M516.82 52.3099C514.25 66.7799 492.47 71.1099 475.16 65.2899C476.51 71.7799 481.11 75.9799 489.36 77.1899C500.04 79.0799 510.46 72.8599 513.84 66.6399C518.17 86.7899 501.4 100.18 479.35 98.9698C456.49 97.7498 444.72 83.4199 446.62 60.1499C448.24 39.7299 461.77 26.8799 485.57 26.8799C505.59 26.8799 519.65 34.4499 516.81 52.3099H516.82ZM477.6 57.7198C477.46 59.7498 477.46 60.6999 477.6 61.9099C485.17 62.4499 487.88 59.2099 488.56 50.6799L489.78 34.5799C489.92 32.0099 488.43 31.7399 487.21 31.8799C479.77 32.4199 478.82 40.1299 477.61 57.7099L477.6 57.7198Z" fill="#0D725F"/>
<path d="M583.09 33.24C591.34 38.65 592.29 55.69 572.95 53.66C570.11 42.16 560.24 32.43 552.12 32.43C547.52 32.43 545.9 36.62 549.28 40.55C556.85 49.48 579.17 56.51 585.93 71.66C593.1 88.03 577 98.85 555.77 98.85C544 98.85 532.78 98.85 526.42 93.44C517.49 85.87 515.73 69.6401 538.59 73.1501C540.08 82.0801 549.55 93.57 558.34 93.57C562.8 93.57 566.18 90.19 561.59 85.45C553.88 77.61 530.08 69.08 525.34 54.07C521.42 41.63 529.8 27.02 551.31 27.02C567.13 27.02 576.74 29.05 583.09 33.24Z" fill="#0D725F"/>
<path d="M628.4 8.76001C628.4 14.58 620.69 40.41 620.56 52.85L621.91 52.99C622.59 43.39 624.61 26.75 644.77 26.75C664.93 26.75 666.82 38.52 665.6 55.56L662.76 96.81C656 98.16 643.82 99.51 634.36 96.81L637.2 59.21C638.15 46.36 639.36 36.22 633.95 36.22C628.27 36.22 626.65 42.44 625.83 53.4L622.72 96.82C615.96 98.17 603.78 99.52 594.32 96.82L601.76 2.14002C619.88 1.87002 628.4 2.27999 628.4 8.76999V8.76001Z" fill="#0D725F"/>
<path d="M126.74 27.7501C124.31 29.7201 121.71 31.2201 118.84 32.4501C115.92 33.7001 112.92 34.7601 110.06 36.1601C107.19 37.5601 104.38 39.4101 102.07 41.6301C100.93 42.7301 99.88 43.9701 98.96 45.2701C98.46 45.9701 98 46.6901 97.69 47.5001C97.43 48.1801 96.91 49.3801 96.63 50.0601C96.57 50.2101 96.33 50.2001 96.33 50.0201C96.38 48.2701 96.31 46.4901 96.95 44.6801C97.49 43.1501 98.48 40.8301 100.12 39.1901C104.69 34.6201 109.91 32.4901 115.7 29.9701C118.64 28.6901 120.54 27.3201 123.02 25.2601C124.1 24.3601 125.16 23.3801 126.02 22.2601C126.48 21.6501 126.85 21.0001 127.19 20.3301C120.91 20.4301 117.49 20.5801 111.43 22.2001C108.05 23.1001 104.74 24.4801 102 26.6501C97.56 30.1601 94.9 35.5301 93.62 41.0401C92.71 44.9501 92.43 48.9601 92.34 52.9901L91.18 52.8701C91.18 48.1401 91.86 42.7301 92.4 38.4001C94.02 26.3601 76.17 27.7101 70.22 27.7101L64.94 96.8301C74.41 99.5301 86.58 98.1801 93.34 96.8301L96.4 58.9501C96.49 57.7901 96.87 56.6501 97.61 55.7501C97.61 55.7501 97.61 55.7501 97.62 55.7401C100.11 52.7201 103.69 50.8101 107.35 49.4401C111.01 48.0601 114.83 47.1501 118.46 45.6801C122.09 44.2201 125.59 42.1201 127.86 38.9301C131.35 34.0101 131.27 29.0901 130.86 23.0201C129.89 24.8901 128.3 26.5001 126.73 27.7701L126.74 27.7501Z" fill="#FF8908"/>
<path d="M448.12 27.7501C445.69 29.7201 443.09 31.2201 440.22 32.4501C437.3 33.7001 434.3 34.7601 431.44 36.1601C428.57 37.5601 425.76 39.4101 423.45 41.6301C422.31 42.7301 421.26 43.9701 420.34 45.2701C419.84 45.9701 419.38 46.6901 419.07 47.5001C418.81 48.1801 418.29 49.3801 418.01 50.0601C417.95 50.2101 417.71 50.2001 417.71 50.0201C417.76 48.2701 417.69 46.4901 418.33 44.6801C418.87 43.1501 419.86 40.8301 421.5 39.1901C426.07 34.6201 431.29 32.4901 437.08 29.9701C440.02 28.6901 441.92 27.3201 444.4 25.2601C445.48 24.3601 446.54 23.3801 447.4 22.2601C447.86 21.6501 448.23 21.0001 448.57 20.3301C442.29 20.4301 438.87 20.5801 432.81 22.2001C429.43 23.1001 426.12 24.4801 423.38 26.6501C418.94 30.1601 416.28 35.5301 415 41.0401C414.09 44.9501 413.81 48.9601 413.72 52.9901L412.56 52.8701C412.56 48.1401 413.24 42.7301 413.78 38.4001C415.4 26.3601 397.55 27.7101 391.6 27.7101L386.32 96.8301C395.79 99.5301 407.96 98.1801 414.72 96.8301L417.78 58.9501C417.87 57.7901 418.25 56.6501 418.99 55.7501C418.99 55.7501 418.99 55.7501 419 55.7401C421.49 52.7201 425.07 50.8101 428.73 49.4401C432.39 48.0601 436.21 47.1501 439.84 45.6801C443.47 44.2201 446.97 42.1201 449.24 38.9301C452.73 34.0101 452.65 29.0901 452.24 23.0201C451.27 24.8901 449.68 26.5001 448.11 27.7701L448.12 27.7501Z" fill="#0D725F"/>
</svg>
