<?xml version="1.0" standalone="no"?>
<!DOCTYPE svg PUBLIC "-//W3C//DTD SVG 20010904//EN"
 "http://www.w3.org/TR/2001/REC-SVG-20010904/DTD/svg10.dtd">
<svg version="1.0" xmlns="http://www.w3.org/2000/svg"
 width="512.000000pt" height="512.000000pt" viewBox="0 0 512.000000 512.000000"
 preserveAspectRatio="xMidYMid meet">
<metadata>
Created by potrace 1.16, written by Peter Selinger 2001-2019
</metadata>
<g transform="translate(0.000000,512.000000) scale(0.100000,-0.100000)"
fill="#000000" stroke="none">
<path d="M1015 4805 c-52 -19 -130 -100 -144 -151 -16 -56 -15 -4133 0 -4189
15 -54 100 -139 154 -154 57 -15 3013 -15 3070 0 55 15 139 100 154 155 8 30
11 509 9 1715 -3 1606 -4 1675 -21 1709 -26 48 -852 876 -902 903 l-40 22
-1120 2 c-948 2 -1126 0 -1160 -12z m2187 -517 c3 -349 4 -364 25 -403 24 -46
54 -75 103 -101 32 -17 66 -19 398 -22 l362 -3 0 -1621 0 -1622 -22 -23 -21
-23 -1486 0 -1485 0 -23 22 -23 21 0 2046 0 2045 22 23 21 23 1063 0 1063 0 3
-362z m473 -58 l300 -300 -278 0 -278 0 -24 25 -25 24 0 276 c0 151 1 275 3
275 1 0 137 -135 302 -300z"/>
<path d="M1342 3907 c-28 -30 -30 -89 -3 -116 11 -11 35 -23 53 -26 18 -3 266
-5 551 -3 l519 3 24 28 c31 37 31 81 -1 112 l-24 25 -549 0 -549 0 -21 -23z"/>
<path d="M1340 3280 c-22 -22 -27 -78 -10 -110 19 -35 63 -40 387 -40 252 0
321 3 348 15 58 23 70 90 25 135 -19 19 -35 20 -375 20 -342 0 -356 -1 -375
-20z"/>
<path d="M2340 3280 c-22 -22 -27 -78 -10 -110 20 -38 52 -40 730 -40 678 0
710 2 730 40 17 32 12 88 -10 110 -20 20 -33 20 -720 20 -687 0 -700 0 -720
-20z"/>
<path d="M1340 2730 c-22 -22 -27 -78 -10 -110 5 -10 24 -23 41 -29 45 -16
2333 -16 2378 0 17 6 36 19 41 29 17 32 12 88 -10 110 -20 20 -33 20 -1220 20
-1187 0 -1200 0 -1220 -20z"/>
<path d="M1340 2180 c-22 -22 -27 -78 -10 -110 20 -38 52 -40 730 -40 678 0
710 2 730 40 17 32 12 88 -10 110 -20 20 -33 20 -720 20 -687 0 -700 0 -720
-20z"/>
<path d="M3030 2180 c-45 -45 -33 -112 25 -135 27 -12 96 -15 348 -15 324 0
368 5 387 40 17 32 12 88 -10 110 -19 19 -33 20 -375 20 -340 0 -356 -1 -375
-20z"/>
<path d="M1340 1630 c-22 -22 -27 -78 -10 -110 5 -10 24 -23 41 -29 45 -16
2333 -16 2378 0 17 6 36 19 41 29 17 32 12 88 -10 110 -20 20 -33 20 -1220 20
-1187 0 -1200 0 -1220 -20z"/>
<path d="M3030 1080 c-45 -45 -33 -112 25 -135 27 -12 96 -15 348 -15 324 0
368 5 387 40 17 32 12 88 -10 110 -19 19 -33 20 -375 20 -340 0 -356 -1 -375
-20z"/>
</g>
</svg>
